<svg version="1.1" id="Layer_1" xmlns="http://www.w3.org/2000/svg" xmlns:xlink="http://www.w3.org/1999/xlink" x="0px" y="0px"
	 width="300px" height="120px" viewBox="0 0 300 120" enable-background="new 0 0 300 120" xml:space="preserve">
<path fill="#C9C9CA" d="M150.824,6.461C70.48,6.461,6.077,30.543,6.077,60.737c0,30.013,64.933,54.28,144.748,54.28
	c79.817,0,144.757-24.349,144.757-54.28C295.581,30.811,230.642,6.461,150.824,6.461 M294.697,56.545
	c0.052,0.265,0.089,0.533,0.134,0.79C294.793,57.079,294.741,56.813,294.697,56.545"/>
<radialGradient id="SVGID_1_" cx="149.8696" cy="185.5498" r="623.7104" gradientTransform="matrix(1 0 0 0.5079 0 91.3096)" gradientUnits="userSpaceOnUse">
	<stop  offset="0" style="stop-color:#00082E"/>
	<stop  offset="0.1549" style="stop-color:#000A30"/>
	<stop  offset="0.242" style="stop-color:#010F39"/>
	<stop  offset="0.3122" style="stop-color:#011946"/>
	<stop  offset="0.3731" style="stop-color:#02275A"/>
	<stop  offset="0.4143" style="stop-color:#03346C"/>
	<stop  offset="0.4393" style="stop-color:#0B4F87"/>
	<stop  offset="0.4804" style="stop-color:#1676AF"/>
	<stop  offset="0.5132" style="stop-color:#1C8EC7"/>
	<stop  offset="0.5333" style="stop-color:#1F97D0"/>
	<stop  offset="1" style="stop-color:#1F97D0"/>
</radialGradient>
<path fill="url(#SVGID_1_)" d="M150.828,8.628c-78.745,0-142.533,23.277-142.533,52.08c0,28.79,63.788,52.081,142.533,52.081
	c78.757,0,142.53-23.291,142.53-52.081C293.357,31.906,229.585,8.628,150.828,8.628"/>
<linearGradient id="SVGID_2_" gradientUnits="userSpaceOnUse" x1="-257.2163" y1="409.6211" x2="-253.9491" y2="409.6211" gradientTransform="matrix(0 -33.7605 -33.7605 0 13979.5967 -8567.5088)">
	<stop  offset="0" style="stop-color:#00082E"/>
	<stop  offset="0.3209" style="stop-color:#010A30"/>
	<stop  offset="0.5013" style="stop-color:#030F39"/>
	<stop  offset="0.6468" style="stop-color:#071846"/>
	<stop  offset="0.773" style="stop-color:#0D245A"/>
	<stop  offset="0.809" style="stop-color:#0F2961"/>
	<stop  offset="0.8386" style="stop-color:#0B386E"/>
	<stop  offset="0.8962" style="stop-color:#054E83"/>
	<stop  offset="0.9511" style="stop-color:#015B90"/>
	<stop  offset="1" style="stop-color:#006094"/>
</linearGradient>
<path fill="url(#SVGID_2_)" d="M151.476,19.549c66.949,0,122.23,16.357,130.674,37.526v-0.003
	c-5.641-22.272-62.278-39.768-131.332-39.768c-72.787,0-131.788,19.435-131.788,43.421c0,1.955,0.393,3.875,1.149,5.762
	c-0.326-1.242-0.495-2.497-0.495-3.772C19.685,38.878,78.688,19.549,151.476,19.549z"/>
<linearGradient id="SVGID_3_" gradientUnits="userSpaceOnUse" x1="-257.2173" y1="409.584" x2="-253.9494" y2="409.584" gradientTransform="matrix(0 -33.7605 -33.7605 0 13980.127 -8567.5107)">
	<stop  offset="0" style="stop-color:#00082E"/>
	<stop  offset="0.3209" style="stop-color:#010A30"/>
	<stop  offset="0.5013" style="stop-color:#030F39"/>
	<stop  offset="0.6468" style="stop-color:#071846"/>
	<stop  offset="0.773" style="stop-color:#0D245A"/>
	<stop  offset="0.809" style="stop-color:#0F2961"/>
	<stop  offset="0.8386" style="stop-color:#0B386E"/>
	<stop  offset="0.8962" style="stop-color:#054E83"/>
	<stop  offset="0.9511" style="stop-color:#015B90"/>
	<stop  offset="1" style="stop-color:#006094"/>
</linearGradient>
<path fill="url(#SVGID_3_)" d="M286.525,55.292c0.583,1.788,0.873,3.594,0.873,5.433c0,26.257-61.148,47.541-136.581,47.541
	c-67.132,0-122.944-16.862-134.427-39.063c8.713,23.076,65.786,40.903,134.971,40.977h0.837
	c75.238-0.074,136.166-21.142,136.166-47.138C288.365,60.406,287.737,57.81,286.525,55.292L286.525,55.292z"/>
<linearGradient id="SVGID_4_" gradientUnits="userSpaceOnUse" x1="-259.9297" y1="412.5371" x2="-256.6643" y2="412.5371" gradientTransform="matrix(0 -23.7353 -23.7353 0 9967.2461 -6071.98)">
	<stop  offset="0" style="stop-color:#00082E"/>
	<stop  offset="0.3209" style="stop-color:#010A30"/>
	<stop  offset="0.5013" style="stop-color:#030F39"/>
	<stop  offset="0.6468" style="stop-color:#071846"/>
	<stop  offset="0.773" style="stop-color:#0D245A"/>
	<stop  offset="0.809" style="stop-color:#0F2961"/>
	<stop  offset="0.8386" style="stop-color:#0B386E"/>
	<stop  offset="0.8962" style="stop-color:#054E83"/>
	<stop  offset="0.9511" style="stop-color:#015B90"/>
	<stop  offset="1" style="stop-color:#006094"/>
</linearGradient>
<path fill="url(#SVGID_4_)" d="M177.099,68.042c-0.301-0.763-0.357-1.622-0.183-2.473c0.061-0.303-0.329-0.577-0.651-0.246
	c-3.057,3.189-3.286,7.313-1.282,9.165c0.715,0.667,1.538,0.964,2.416,1.02C176.093,73.852,175.477,70.606,177.099,68.042z"/>
<linearGradient id="SVGID_5_" gradientUnits="userSpaceOnUse" x1="-259.9429" y1="411.6055" x2="-256.7107" y2="411.6055" gradientTransform="matrix(0 -23.6812 -23.6812 0 9955.5527 -6058.4917)">
	<stop  offset="0" style="stop-color:#00082E"/>
	<stop  offset="0.3209" style="stop-color:#010A30"/>
	<stop  offset="0.5013" style="stop-color:#030F39"/>
	<stop  offset="0.6468" style="stop-color:#071846"/>
	<stop  offset="0.773" style="stop-color:#0D245A"/>
	<stop  offset="0.809" style="stop-color:#0F2961"/>
	<stop  offset="0.8386" style="stop-color:#0B386E"/>
	<stop  offset="0.8962" style="stop-color:#054E83"/>
	<stop  offset="0.9511" style="stop-color:#015B90"/>
	<stop  offset="1" style="stop-color:#006094"/>
</linearGradient>
<path fill="url(#SVGID_5_)" d="M208.088,74.182h0.003c0.158-0.302,0.314-0.622,0.479-0.964c0.128-0.262,0.064-0.336-0.044-0.38
	c-0.316-0.114-0.639-0.353-0.684-0.601c-0.019-0.045-0.024-0.088-0.028-0.139l0,0c0.003,0.015,0.004,0.02,0.004,0.027
	C207.859,72.603,207.986,73.509,208.088,74.182z"/>
<linearGradient id="SVGID_6_" gradientUnits="userSpaceOnUse" x1="-259.9434" y1="411.4668" x2="-256.6993" y2="411.4668" gradientTransform="matrix(0 -23.681 -23.681 0 9956.918 -6058.4346)">
	<stop  offset="0" style="stop-color:#00082E"/>
	<stop  offset="0.3209" style="stop-color:#010A30"/>
	<stop  offset="0.5013" style="stop-color:#030F39"/>
	<stop  offset="0.6468" style="stop-color:#071846"/>
	<stop  offset="0.773" style="stop-color:#0D245A"/>
	<stop  offset="0.809" style="stop-color:#0F2961"/>
	<stop  offset="0.8386" style="stop-color:#0B386E"/>
	<stop  offset="0.8962" style="stop-color:#054E83"/>
	<stop  offset="0.9511" style="stop-color:#015B90"/>
	<stop  offset="1" style="stop-color:#006094"/>
</linearGradient>
<path fill="url(#SVGID_6_)" d="M211.563,61.693L211.563,61.693c1.021,0.978,1.642,2.166,1.76,3.257
	c0.045,0.517,0.438,0.576,0.76,0.124c0.083-0.124,0.179-0.277,0.293-0.449c-0.089-0.125-0.185-0.245-0.277-0.364
	C213.648,63.734,212.59,62.589,211.563,61.693z"/>
<linearGradient id="SVGID_7_" gradientUnits="userSpaceOnUse" x1="-259.9492" y1="412.71" x2="-256.6795" y2="412.71" gradientTransform="matrix(0 -23.6962 -23.6962 0 9949.9658 -6062.2266)">
	<stop  offset="0" style="stop-color:#00082E"/>
	<stop  offset="0.3209" style="stop-color:#010A30"/>
	<stop  offset="0.5013" style="stop-color:#030F39"/>
	<stop  offset="0.6468" style="stop-color:#071846"/>
	<stop  offset="0.773" style="stop-color:#0D245A"/>
	<stop  offset="0.809" style="stop-color:#0F2961"/>
	<stop  offset="0.8386" style="stop-color:#0B386E"/>
	<stop  offset="0.8962" style="stop-color:#054E83"/>
	<stop  offset="0.9511" style="stop-color:#015B90"/>
	<stop  offset="1" style="stop-color:#006094"/>
</linearGradient>
<path fill="url(#SVGID_7_)" d="M169.194,59.684L169.194,59.684c0.819,1.12,1.202,2.722,1.145,4.77
	c-0.013,0.533,0.373,0.496,0.626,0.134c0.142-0.201,0.272-0.379,0.404-0.561v-0.015C170.77,62.174,169.851,60.37,169.194,59.684z"/>
<linearGradient id="SVGID_8_" gradientUnits="userSpaceOnUse" x1="-259.9395" y1="411.8047" x2="-256.6753" y2="411.8047" gradientTransform="matrix(0 -23.7124 -23.7124 0 9965.8398 -6066.271)">
	<stop  offset="0" style="stop-color:#00082E"/>
	<stop  offset="0.3209" style="stop-color:#010A30"/>
	<stop  offset="0.5013" style="stop-color:#030F39"/>
	<stop  offset="0.6468" style="stop-color:#071846"/>
	<stop  offset="0.773" style="stop-color:#0D245A"/>
	<stop  offset="0.809" style="stop-color:#0F2961"/>
	<stop  offset="0.8386" style="stop-color:#0B386E"/>
	<stop  offset="0.8962" style="stop-color:#054E83"/>
	<stop  offset="0.9511" style="stop-color:#015B90"/>
	<stop  offset="1" style="stop-color:#006094"/>
</linearGradient>
<path fill="url(#SVGID_8_)" d="M207.281,65.103c-2.523-1.211-6.37,1.01-9.852,5.295c-2.853,3.504-4.391,7.068-4.445,10.542
	c-0.022,1.238,0.447,2.766,1.538,3.326c0.354,0.193,0.712,0.318,1.089,0.377c-0.132-0.494-0.188-0.978-0.191-1.396
	c-0.042-3.585,1.072-7.165,3.932-10.673c3.456-4.264,7.094-6.389,9.618-5.214C208.842,66.42,208.354,65.611,207.281,65.103z"/>
<linearGradient id="SVGID_9_" gradientUnits="userSpaceOnUse" x1="-259.9614" y1="413.791" x2="-256.6948" y2="413.791" gradientTransform="matrix(0 -23.6585 -23.6585 0 9923.7451 -6052.8311)">
	<stop  offset="0" style="stop-color:#00082E"/>
	<stop  offset="0.3209" style="stop-color:#010A30"/>
	<stop  offset="0.5013" style="stop-color:#030F39"/>
	<stop  offset="0.6468" style="stop-color:#071846"/>
	<stop  offset="0.773" style="stop-color:#0D245A"/>
	<stop  offset="0.809" style="stop-color:#0F2961"/>
	<stop  offset="0.8386" style="stop-color:#0B386E"/>
	<stop  offset="0.8962" style="stop-color:#054E83"/>
	<stop  offset="0.9511" style="stop-color:#015B90"/>
	<stop  offset="1" style="stop-color:#006094"/>
</linearGradient>
<path fill="url(#SVGID_9_)" d="M131.846,72.206c2.658-3.604,5.652-4.965,9.066-6.442c0.45-0.198,0.504-0.452,0.418-0.849
	c-0.146-0.679-0.62-2.368-0.765-2.774c0.108,0.371,0.012,0.655-0.432,0.82c-3.874,1.471-7.758,3.755-10.445,7.353
	c-3.048,4.085-3.865,8.996-1.829,11.826c0.485,0.663,1.063,1.154,1.701,1.473C128.463,80.235,129.264,75.702,131.846,72.206z"/>
<linearGradient id="SVGID_10_" gradientUnits="userSpaceOnUse" x1="-259.9507" y1="412.7969" x2="-256.6826" y2="412.7969" gradientTransform="matrix(0 -23.6866 -23.6866 0 9945.2549 -6059.8501)">
	<stop  offset="0" style="stop-color:#00082E"/>
	<stop  offset="0.3209" style="stop-color:#010A30"/>
	<stop  offset="0.5013" style="stop-color:#030F39"/>
	<stop  offset="0.6468" style="stop-color:#071846"/>
	<stop  offset="0.773" style="stop-color:#0D245A"/>
	<stop  offset="0.809" style="stop-color:#0F2961"/>
	<stop  offset="0.8386" style="stop-color:#0B386E"/>
	<stop  offset="0.8962" style="stop-color:#054E83"/>
	<stop  offset="0.9511" style="stop-color:#015B90"/>
	<stop  offset="1" style="stop-color:#006094"/>
</linearGradient>
<path fill="url(#SVGID_10_)" d="M151.348,93.582c2.619,0,5.837,0,8.016-0.011c0.323-0.018,0.553-0.203,0.723-0.445
	c3.255-5.098,6.732-10.633,10.056-15.737c0.73,2.575,1.104,3.773,2.46,4.986c1.382,1.234,2.659,1.556,4.538,1.574
	c1.707,0.021,3.389-0.662,5.39-1.493c0.715-0.297,1.359-0.668,1.935-1.039c0-0.947,0.096-1.898,0.265-2.803
	c0.013-0.098-0.083-0.727-0.619-0.354c-0.923,0.664-2.126,1.392-3.622,1.947c-1.844,0.688-2.703,0.948-4.41,0.929
	c-2.148-0.016-4.082-0.929-5.444-3.053c-0.76-1.147-1.076-2.895-1.148-4.179c-0.01-0.141-0.195-0.39-0.396-0.068
	c-3.609,5.516-6.979,10.845-10.56,16.448c-0.186,0.263-0.348,0.434-0.719,0.449c-2.214,0-4.637-0.006-7.075,0.007
	c-0.255,0-0.438-0.118-0.492-0.294c0.192,0.855,0.504,2.404,0.587,2.764C150.892,93.453,151.076,93.582,151.348,93.582z"/>
<linearGradient id="SVGID_11_" gradientUnits="userSpaceOnUse" x1="-259.8687" y1="411.5098" x2="-256.6015" y2="411.5098" gradientTransform="matrix(0 -23.8873 -23.8873 0 10038.2354 -6109.8569)">
	<stop  offset="0" style="stop-color:#00082E"/>
	<stop  offset="0.3209" style="stop-color:#010A30"/>
	<stop  offset="0.5013" style="stop-color:#030F39"/>
	<stop  offset="0.6468" style="stop-color:#071846"/>
	<stop  offset="0.773" style="stop-color:#0D245A"/>
	<stop  offset="0.809" style="stop-color:#0F2961"/>
	<stop  offset="0.8386" style="stop-color:#0B386E"/>
	<stop  offset="0.8962" style="stop-color:#054E83"/>
	<stop  offset="0.9511" style="stop-color:#015B90"/>
	<stop  offset="1" style="stop-color:#006094"/>
</linearGradient>
<path fill="url(#SVGID_11_)" d="M186.389,90.532c0.605,1.159,1.959,2.46,2.782,2.871c4.694,2.313,11.396-0.31,15.701-4.449
	c0.042-0.056,0.051-0.06,0.115-0.128c0.197,0.745,0.438,1.646,0.472,1.771c0.294,0.961,0.754,1.834,1.158,2.298
	c2.946,3.327,9.198,1.813,15.705-3.223c3.638-2.81,6.335-5.636,9.638-9.479c0.131-0.16,0.121-0.396,0.045-0.755
	c-0.188-0.836-0.485-2.348-0.651-3.11h-0.001c0,0.134-0.06,0.258-0.127,0.349c-3.449,4.206-7.261,8.181-10.908,10.993
	c-5.67,4.392-11.329,5.507-14.127,2.693c-1.047-1.046-1.619-2.543-1.688-3.813c-0.035-0.688-0.383-0.72-0.712-0.398
	c-3.341,3.31-9.152,6.976-14.447,4.365c-2.731-1.347-4.155-3.876-4.666-6.66c0.004,0.029,0.014,0.065,0.021,0.094
	C185.028,85.926,185.456,88.773,186.389,90.532z"/>
<linearGradient id="SVGID_12_" gradientUnits="userSpaceOnUse" x1="-259.8945" y1="412.2998" x2="-256.6319" y2="412.2998" gradientTransform="matrix(0 -23.8273 -23.8273 0 10006.1396 -6094.8633)">
	<stop  offset="0" style="stop-color:#00082E"/>
	<stop  offset="0.3209" style="stop-color:#010A30"/>
	<stop  offset="0.5013" style="stop-color:#030F39"/>
	<stop  offset="0.6468" style="stop-color:#071846"/>
	<stop  offset="0.773" style="stop-color:#0D245A"/>
	<stop  offset="0.809" style="stop-color:#0F2961"/>
	<stop  offset="0.8386" style="stop-color:#0B386E"/>
	<stop  offset="0.8962" style="stop-color:#054E83"/>
	<stop  offset="0.9511" style="stop-color:#015B90"/>
	<stop  offset="1" style="stop-color:#006094"/>
</linearGradient>
<path fill="url(#SVGID_12_)" d="M184.052,72.574c1.743-0.944,3.274-2.944,3.083-6.187c-0.1-1.616-0.568-3.28-1.324-4.622
	c0.514,0.979,0.728,2.12,0.546,3.321c-0.333,2.093-1.469,3.942-3.399,4.896c-1.634,0.801-3.545,0.66-4.882-0.533
	c-0.419-0.378-0.722-0.84-0.936-1.323c0.345,1.582,0.645,2.745,1.057,3.368C179.46,73.394,181.643,73.875,184.052,72.574z"/>
<linearGradient id="SVGID_13_" gradientUnits="userSpaceOnUse" x1="-259.9609" y1="411.1416" x2="-256.694" y2="411.1416" gradientTransform="matrix(0 -23.6646 -23.6646 0 9953.8008 -6054.3491)">
	<stop  offset="0" style="stop-color:#00082E"/>
	<stop  offset="0.3209" style="stop-color:#010A30"/>
	<stop  offset="0.5013" style="stop-color:#030F39"/>
	<stop  offset="0.6468" style="stop-color:#071846"/>
	<stop  offset="0.773" style="stop-color:#0D245A"/>
	<stop  offset="0.809" style="stop-color:#0F2961"/>
	<stop  offset="0.8386" style="stop-color:#0B386E"/>
	<stop  offset="0.8962" style="stop-color:#054E83"/>
	<stop  offset="0.9511" style="stop-color:#015B90"/>
	<stop  offset="1" style="stop-color:#006094"/>
</linearGradient>
<path fill="url(#SVGID_13_)" d="M235.866,45.17c-1.099,1.902-22.301,34.182-23.642,37.521c-0.424,1.056-0.473,1.866-0.042,2.448
	c0.438,0.585,1.076,0.808,1.801,0.796c0.073-0.407,0.229-0.867,0.421-1.351c1.34-3.349,21.197-33.526,22.288-35.435
	c0.089-0.163,0.057-0.346,0.028-0.468c-0.063-0.303-0.729-3.511-0.795-3.812l0,0C235.945,44.954,235.926,45.06,235.866,45.17z"/>
<linearGradient id="SVGID_14_" gradientUnits="userSpaceOnUse" x1="-259.9512" y1="413.3164" x2="-256.6799" y2="413.3164" gradientTransform="matrix(0 -23.6911 -23.6911 0 9941.6045 -6060.9648)">
	<stop  offset="0" style="stop-color:#00082E"/>
	<stop  offset="0.3209" style="stop-color:#010A30"/>
	<stop  offset="0.5013" style="stop-color:#030F39"/>
	<stop  offset="0.6468" style="stop-color:#071846"/>
	<stop  offset="0.773" style="stop-color:#0D245A"/>
	<stop  offset="0.809" style="stop-color:#0F2961"/>
	<stop  offset="0.8386" style="stop-color:#0B386E"/>
	<stop  offset="0.8962" style="stop-color:#054E83"/>
	<stop  offset="0.9511" style="stop-color:#015B90"/>
	<stop  offset="1" style="stop-color:#006094"/>
</linearGradient>
<path fill="url(#SVGID_14_)" d="M147.864,60.193L147.864,60.193c0.06,0.067,0.111,0.133,0.165,0.201
	c1.276,1.899,1.972,4.572,2.042,7.333c0.076,0.582,0.325,0.595,0.606,0.297c0.259-0.263,0.511-0.541,0.759-0.81
	c-0.373-1.484-0.951-2.817-1.547-4.102C149.669,62.646,148.7,60.982,147.864,60.193z"/>
<linearGradient id="SVGID_15_" gradientUnits="userSpaceOnUse" x1="-259.9541" y1="413.6758" x2="-256.6888" y2="413.6758" gradientTransform="matrix(0 -23.6823 -23.6823 0 9934.3652 -6058.7656)">
	<stop  offset="0" style="stop-color:#00082E"/>
	<stop  offset="0.3209" style="stop-color:#010A30"/>
	<stop  offset="0.5013" style="stop-color:#030F39"/>
	<stop  offset="0.6468" style="stop-color:#071846"/>
	<stop  offset="0.773" style="stop-color:#0D245A"/>
	<stop  offset="0.809" style="stop-color:#0F2961"/>
	<stop  offset="0.8386" style="stop-color:#0B386E"/>
	<stop  offset="0.8962" style="stop-color:#054E83"/>
	<stop  offset="0.9511" style="stop-color:#015B90"/>
	<stop  offset="1" style="stop-color:#006094"/>
</linearGradient>
<path fill="url(#SVGID_15_)" d="M113.646,90.365c0.386,0.195,0.785,0.017,0.977-0.089c1.293-0.663,3.811-2.598,4.896-3.951
	c0.329-0.306,0.645-0.097,0.75,0.23c0.453,1.435,1.117,2.542,1.861,3.721c0.81,1.312,2.438,2.671,4.547,3.249
	c2.731,0.764,5.674,0.901,9.545-0.578c3.105-1.187,6.357-3.609,8.858-6.328c3.003-3.257,4.088-5.346,5.225-6.771
	c1.947-2.41,4.978-6.679,9.226-10.303c1.487-1.269,3.114-2.095,4.133-1.696c0.616-1.581,0.325-2.454-0.329-2.875
	c-0.995-0.648-2.983,0.325-4.662,1.604c-4.573,3.464-8.416,8.862-10.362,11.275c-1.149,1.421-2.23,3.514-5.228,6.77
	c-4.713,5.117-10.962,8.056-16.99,6.027c-3.29-1.107-5.671-3.752-6.577-7.001c-0.182-0.627-0.533-0.804-0.875-0.389
	c-0.973,1.216-2.964,3.003-4.627,4.128c-0.182,0.131-0.632,0.398-1.018,0.205c-0.348-0.157-1.583-1.901-1.825-2.404
	c-0.032-0.05-0.051-0.114-0.061-0.167v0.022c0.434,2.147,0.488,2.396,1.075,3.388C112.851,89.528,113.499,90.303,113.646,90.365z"/>
<linearGradient id="SVGID_16_" gradientUnits="userSpaceOnUse" x1="-259.9619" y1="415.3975" x2="-256.6949" y2="415.3975" gradientTransform="matrix(0 -23.6627 -23.6627 0 9908.6533 -6053.8716)">
	<stop  offset="0" style="stop-color:#00082E"/>
	<stop  offset="0.3209" style="stop-color:#010A30"/>
	<stop  offset="0.5013" style="stop-color:#030F39"/>
	<stop  offset="0.6468" style="stop-color:#071846"/>
	<stop  offset="0.773" style="stop-color:#0D245A"/>
	<stop  offset="0.809" style="stop-color:#0F2961"/>
	<stop  offset="0.8386" style="stop-color:#0B386E"/>
	<stop  offset="0.8962" style="stop-color:#054E83"/>
	<stop  offset="0.9511" style="stop-color:#015B90"/>
	<stop  offset="1" style="stop-color:#006094"/>
</linearGradient>
<path fill="url(#SVGID_16_)" d="M77.297,71.087c1.522-3.069,3.664-4.535,5.77-5.866c0.906-0.574,1.308-1.13,0.769-2.626
	c-0.153-0.426-0.239-1.194-0.409-1.874c0.054,0.664-0.274,1.235-0.861,1.54c-2.572,1.313-5.668,3.562-7.196,6.63
	c-1.242,2.5-1.494,5.525,0.398,8.399c0.159,0.23,0.331,0.461,0.521,0.674h0.002C75.683,75.578,76.337,73.008,77.297,71.087z"/>
<linearGradient id="SVGID_17_" gradientUnits="userSpaceOnUse" x1="-259.877" y1="414.2559" x2="-256.6074" y2="414.2559" gradientTransform="matrix(0 -23.8868 -23.8868 0 10009.1025 -6109.6431)">
	<stop  offset="0" style="stop-color:#00082E"/>
	<stop  offset="0.3209" style="stop-color:#010A30"/>
	<stop  offset="0.5013" style="stop-color:#030F39"/>
	<stop  offset="0.6468" style="stop-color:#071846"/>
	<stop  offset="0.773" style="stop-color:#0D245A"/>
	<stop  offset="0.809" style="stop-color:#0F2961"/>
	<stop  offset="0.8386" style="stop-color:#0B386E"/>
	<stop  offset="0.8962" style="stop-color:#054E83"/>
	<stop  offset="0.9511" style="stop-color:#015B90"/>
	<stop  offset="1" style="stop-color:#006094"/>
</linearGradient>
<path fill="url(#SVGID_17_)" d="M103.631,33.82c9.351-3.084,19.777-1.134,28.15,0.658c1.171-0.732,2.196-1.237,3.223-1.799
	c0.511-0.268-0.061-0.587-0.22-0.587c-10.809-2.029-22.042-4.661-32.775-0.686c-7.436,2.776-10.697,8.672-9.124,12.61
	c0.3,0.751,0.779,1.335,1.404,1.75C93.764,42.134,96.486,36.184,103.631,33.82z"/>
<linearGradient id="SVGID_18_" gradientUnits="userSpaceOnUse" x1="-259.9551" y1="414.6699" x2="-256.6874" y2="414.6699" gradientTransform="matrix(0 -23.6757 -23.6757 0 9921.3604 -6057.1162)">
	<stop  offset="0" style="stop-color:#00082E"/>
	<stop  offset="0.3209" style="stop-color:#010A30"/>
	<stop  offset="0.5013" style="stop-color:#030F39"/>
	<stop  offset="0.6468" style="stop-color:#071846"/>
	<stop  offset="0.773" style="stop-color:#0D245A"/>
	<stop  offset="0.809" style="stop-color:#0F2961"/>
	<stop  offset="0.8386" style="stop-color:#0B386E"/>
	<stop  offset="0.8962" style="stop-color:#054E83"/>
	<stop  offset="0.9511" style="stop-color:#015B90"/>
	<stop  offset="1" style="stop-color:#006094"/>
</linearGradient>
<path fill="url(#SVGID_18_)" d="M73.215,90.338c3.067,2.16,6.083,2.876,9.605,2.94c7.152,0.124,13.685-2.829,20.613-9.86
	c6.651-6.75,12.408-16.181,18.085-25.531c0.188-0.329,0.389-0.476,1.34-0.6c3.562-0.439,6.753-0.642,9.899-0.938
	c0.938-0.088,1.653-0.174,1.995,0.166c1.136,1.137,2.458,2.176,3.332,2.684c0.581,0.006,1.069,0.134,1.41,0.44
	c0.367-0.048,0.702-0.252,0.919-0.463c0.408-0.399,0.424-0.866,0.357-1.262c-0.141-0.777-0.351-2.307-0.6-2.752
	c0.172,0.338,0.061,0.817-0.278,1.2c-0.249,0.284-0.638,0.552-1.133,0.546c-0.409-0.009-0.651-0.15-1.165-0.431
	c-1.059-0.568-2.371-1.506-3.252-2.615c-0.297-0.372-0.45-0.382-1.2-0.34c-3.364,0.196-8.613,0.7-12.172,1.147
	c-0.858,0.108-0.986,0.268-1.165,0.563c-5.671,9.353-11.725,19.436-18.373,26.188c-7.129,7.24-13.059,9.14-19.349,9.192
	c-7.259,0.049-13.718-4.063-15.356-11.289v0.002C67.611,83.361,70.212,88.219,73.215,90.338z"/>
<linearGradient id="SVGID_19_" gradientUnits="userSpaceOnUse" x1="-259.918" y1="414.5645" x2="-256.6562" y2="414.5645" gradientTransform="matrix(0 -23.7655 -23.7655 0 9957.9297 -6079.4604)">
	<stop  offset="0" style="stop-color:#00082E"/>
	<stop  offset="0.3209" style="stop-color:#010A30"/>
	<stop  offset="0.5013" style="stop-color:#030F39"/>
	<stop  offset="0.6468" style="stop-color:#071846"/>
	<stop  offset="0.773" style="stop-color:#0D245A"/>
	<stop  offset="0.809" style="stop-color:#0F2961"/>
	<stop  offset="0.8386" style="stop-color:#0B386E"/>
	<stop  offset="0.8962" style="stop-color:#054E83"/>
	<stop  offset="0.9511" style="stop-color:#015B90"/>
	<stop  offset="1" style="stop-color:#006094"/>
</linearGradient>
<path fill="url(#SVGID_19_)" d="M100.032,58.915c-0.166-0.255-0.246-0.533-0.252-0.813c-0.074,1.212,0.415,2.994,0.807,3.589
	c0.431,0.664,1.644,0.991,2.604,0.275c2.17-1.598,4.129-2.529,6.321-2.944c0.565-0.771,1.171-1.625,1.867-2.585
	c0.061-0.075,0.077-0.175,0.051-0.225c-0.039-0.087-0.109-0.112-0.25-0.118c-3.213,0.089-6.019,1.05-8.741,3.083
	C101.656,59.748,100.526,59.667,100.032,58.915z"/>
<linearGradient id="SVGID_20_" gradientUnits="userSpaceOnUse" x1="-259.9634" y1="413.0801" x2="-256.6915" y2="413.0801" gradientTransform="matrix(0 -23.6632 -23.6632 0 9933.0166 -6053.9985)">
	<stop  offset="0" style="stop-color:#00082E"/>
	<stop  offset="0.3209" style="stop-color:#010A30"/>
	<stop  offset="0.5013" style="stop-color:#030F39"/>
	<stop  offset="0.6468" style="stop-color:#071846"/>
	<stop  offset="0.773" style="stop-color:#0D245A"/>
	<stop  offset="0.809" style="stop-color:#0F2961"/>
	<stop  offset="0.8386" style="stop-color:#0B386E"/>
	<stop  offset="0.8962" style="stop-color:#054E83"/>
	<stop  offset="0.9511" style="stop-color:#015B90"/>
	<stop  offset="1" style="stop-color:#006094"/>
</linearGradient>
<path fill="url(#SVGID_20_)" d="M187.492,37.01c-4.496,2.467-9.193,3.212-14.103,3.255c-11.875,0.097-22.938-4.53-34.383-7.016
	c0.016,0.499,0.147,1.098-0.274,1.414c-6.338,4.674-12.069,9.425-15.909,16.092c-0.127,0.156-0.057,0.3,0.166,0.284
	c1.012-0.046,1.991-0.091,2.956-0.144c3.497-5.478,7.238-8.618,12.95-12.834c0.428-0.324,0.855-0.549,0.715-1.768
	c11.479,2.549,20.21,6.771,35.034,6.81c4.424,0.014,10.663-1.46,14.017-3.48c3.858-2.32,4.883-4.026,5.023-5.829
	c0.045-0.563-0.103-1.399-0.195-1.83c-0.131-0.611-0.217-1.39-0.392-1.971c0.06,0.237,0.086,0.503,0.066,0.796
	C193.045,32.863,191.442,34.856,187.492,37.01z"/>
<linearGradient id="SVGID_21_" gradientUnits="userSpaceOnUse" x1="-259.9424" y1="413.6406" x2="-256.6729" y2="413.6406" gradientTransform="matrix(0 -23.7167 -23.7167 0 9948.3398 -6067.3086)">
	<stop  offset="0" style="stop-color:#00082E"/>
	<stop  offset="0.3209" style="stop-color:#010A30"/>
	<stop  offset="0.5013" style="stop-color:#030F39"/>
	<stop  offset="0.6468" style="stop-color:#071846"/>
	<stop  offset="0.773" style="stop-color:#0D245A"/>
	<stop  offset="0.809" style="stop-color:#0F2961"/>
	<stop  offset="0.8386" style="stop-color:#0B386E"/>
	<stop  offset="0.8962" style="stop-color:#054E83"/>
	<stop  offset="0.9511" style="stop-color:#015B90"/>
	<stop  offset="1" style="stop-color:#006094"/>
</linearGradient>
<path fill="url(#SVGID_21_)" d="M137.89,44.749c-0.141,0.134-0.3,0.271-0.457,0.415c-1.133,1.173-1.478,2.726-1.312,3.902
	c0.093,0.477,0.277,0.571,0.495,0.53c0.214-0.043,0.431-0.118,0.657-0.206c0.08-0.648,0.351-1.275,1.005-1.851
	c0.473-0.418,1.066-0.612,1.573-0.528c0.437-0.866,0.562-1.908,0.029-2.373C139.368,44.195,138.551,44.278,137.89,44.749z"/>
<linearGradient id="SVGID_22_" gradientUnits="userSpaceOnUse" x1="-259.958" y1="413.5938" x2="-256.6932" y2="413.5938" gradientTransform="matrix(0 -23.666 -23.666 0 9928.752 -6054.6885)">
	<stop  offset="0" style="stop-color:#00082E"/>
	<stop  offset="0.3209" style="stop-color:#010A30"/>
	<stop  offset="0.5013" style="stop-color:#030F39"/>
	<stop  offset="0.6468" style="stop-color:#071846"/>
	<stop  offset="0.773" style="stop-color:#0D245A"/>
	<stop  offset="0.809" style="stop-color:#0F2961"/>
	<stop  offset="0.8386" style="stop-color:#0B386E"/>
	<stop  offset="0.8962" style="stop-color:#054E83"/>
	<stop  offset="0.9511" style="stop-color:#015B90"/>
	<stop  offset="1" style="stop-color:#006094"/>
</linearGradient>
<path fill="url(#SVGID_22_)" d="M142.457,48.813c-1.089,2.083-2.885,3.193-4.608,3.732c0,0-0.361,0.082-0.307,0.412
	c0.042,0.37,1.264,1.144,2.027,1.687c0.111-0.03,0.277-0.091,0.277-0.091c0.884-0.351,2.358-1.25,3.21-3.115
	c0.546-1.203,0.843-2.148,0.606-4.212c-0.172-1.441-0.463-2.742-0.849-3.415C143.558,45.32,143.261,47.257,142.457,48.813z"/>
<linearGradient id="SVGID_23_" gradientUnits="userSpaceOnUse" x1="-259.9639" y1="414.8262" x2="-256.689" y2="414.8262" gradientTransform="matrix(0 -23.6715 -23.6715 0 9917.9814 -6056.062)">
	<stop  offset="0" style="stop-color:#00082E"/>
	<stop  offset="0.3209" style="stop-color:#010A30"/>
	<stop  offset="0.5013" style="stop-color:#030F39"/>
	<stop  offset="0.6468" style="stop-color:#071846"/>
	<stop  offset="0.773" style="stop-color:#0D245A"/>
	<stop  offset="0.809" style="stop-color:#0F2961"/>
	<stop  offset="0.8386" style="stop-color:#0B386E"/>
	<stop  offset="0.8962" style="stop-color:#054E83"/>
	<stop  offset="0.9511" style="stop-color:#015B90"/>
	<stop  offset="1" style="stop-color:#006094"/>
</linearGradient>
<path fill="url(#SVGID_23_)" d="M110.553,41.375c-3.14,7.382-9.14,13.238-16.448,13.48c-4.087,0.136-7.215-1.79-8.878-4.73
	c1.215,2.195,3.271,4.118,5.103,5.272c1.583,0.986,3.536,1.535,5.77,1.46c7.615-0.26,13.385-6.536,15.299-11.838
	c0.511-1.43,0.112-2.962-0.124-3.998c-0.096-0.396-0.227-1.299-0.517-1.943h-0.003C110.971,39.609,110.971,40.391,110.553,41.375z"
	/>
<path fill="#4B4B4B" d="M150.824,6.461C70.48,6.461,6.077,30.543,6.077,60.737c0,30.013,64.933,54.28,144.748,54.28
	c79.817,0,144.757-24.349,144.757-54.28C295.581,30.811,230.642,6.461,150.824,6.461 M7.069,61.335
	c-0.029-6.352,2.77-12.663,8.658-18.604C36.449,21.828,90.745,7.7,150.585,7.456c79.269-0.33,143.866,23.306,144.004,52.688
	c0.028,6.353-2.939,12.58-8.827,18.516c-20.725,20.908-74.854,35.124-134.688,35.364C71.805,114.354,7.203,90.721,7.069,61.335
	 M294.697,56.545c0.052,0.265,0.089,0.533,0.134,0.79C294.793,57.079,294.741,56.813,294.697,56.545"/>
<linearGradient id="SVGID_24_" gradientUnits="userSpaceOnUse" x1="-254.2256" y1="410.4531" x2="-250.9597" y2="410.4531" gradientTransform="matrix(-10.2431 -38.2279 -38.2279 10.2431 13205.6934 -13781.9199)">
	<stop  offset="0" style="stop-color:#A5A5A6"/>
	<stop  offset="0.35" style="stop-color:#D7D7D7"/>
	<stop  offset="0.65" style="stop-color:#D7D7D7"/>
	<stop  offset="1" style="stop-color:#A5A5A6"/>
</linearGradient>
<path fill="url(#SVGID_24_)" d="M6.514,60.737c0,1.418,0.167,2.825,0.457,4.212c-0.22-1.195-0.345-2.396-0.351-3.611
	c-0.028-6.436,2.85-12.934,8.786-18.924C36.244,21.396,90.595,7.253,150.582,7.001c8.313-0.037,16.458,0.196,24.394,0.67
	c-7.856-0.493-15.921-0.758-24.151-0.758C70.803,6.913,6.514,30.909,6.514,60.737z"/>
<linearGradient id="SVGID_25_" gradientUnits="userSpaceOnUse" x1="206.8809" y1="71.9644" x2="173.5012" y2="-52.6101">
	<stop  offset="0" style="stop-color:#A5A5A6"/>
	<stop  offset="0.35" style="stop-color:#D7D7D7"/>
	<stop  offset="0.65" style="stop-color:#D7D7D7"/>
	<stop  offset="1" style="stop-color:#A5A5A6"/>
</linearGradient>
<path fill="url(#SVGID_25_)" d="M286.084,78.995c-20.766,20.941-75.101,35.232-135.008,35.48
	c-8.473,0.037-16.779-0.189-24.854-0.676c7.994,0.51,16.221,0.768,24.605,0.768c79.568,0,144.303-24.293,144.303-53.812
	c0-1.128-0.104-2.245-0.287-3.357c0.131,0.913,0.191,1.834,0.198,2.759C295.077,66.593,292.02,73.006,286.084,78.995"/>
<path fill="#FFFFFF" d="M150.818,13.184c-75.439,0-136.594,21.279-136.594,47.541c0,26.257,61.155,47.541,136.594,47.541
	c75.432,0,136.581-21.284,136.581-47.541C287.398,34.463,226.25,13.184,150.818,13.184z M150.818,104.148
	c-72.787,0-131.788-19.435-131.788-43.424c0-23.986,59-43.421,131.788-43.421c72.793,0,131.788,19.435,131.788,43.421
	C282.605,84.713,223.611,104.148,150.818,104.148z"/>
<path fill="#FFFFFF" d="M235.866,45.17c0.188-0.331-0.007-0.573-0.425-0.573c-2.187,0-5.046,0.007-7.317,0.007
	c-0.543,0-0.82,0.059-1.076,0.566c-0.839,1.61-11.063,16.927-12.966,19.903c-0.322,0.452-0.715,0.393-0.76-0.124
	c-0.188-1.768-1.717-3.804-4.12-4.771c-1.835-0.745-3.625-0.879-5.485-0.63c-3.363,0.451-6.357,2.229-8.993,4.225
	c-3.97,3.019-7.395,6.928-11.814,9.819c-2.412,1.571-5.719,2.944-7.927,0.896c-2.004-1.853-1.774-5.976,1.282-9.165
	c0.322-0.331,0.712-0.057,0.651,0.246c-0.29,1.446,0.063,2.878,1.159,3.88c1.337,1.193,3.248,1.334,4.882,0.533
	c1.931-0.954,3.066-2.804,3.399-4.896c0.511-3.258-1.994-6.126-5.129-6.355c-2.543-0.18-4.985,0.706-7.362,2.669
	c-1.19,0.991-1.87,1.716-2.9,3.187c-0.253,0.362-0.639,0.399-0.626-0.134c0.118-4.163-1.602-6.507-5.048-6.582
	c-2.672-0.069-5.525,1.387-7.752,3.158c-2.438,1.956-4.57,4.555-6.862,6.995c-0.281,0.298-0.53,0.285-0.606-0.297
	c-0.07-2.762-0.766-5.435-2.042-7.333c-0.457-0.659-1.404-0.986-2.202-0.54c-0.37,0.2-1.653,0.792-2.591,1.546
	c-0.459,0.383-0.638,0.933-0.438,1.641c1.232,4.128,0.961,8.811-0.711,12.775c-1.532,3.62-4.516,6.895-8.026,7.998
	c-2.307,0.732-4.714,0.374-6.201-1.676c-2.036-2.83-1.219-7.741,1.829-11.826c2.687-3.598,6.571-5.882,10.445-7.353
	c0.457-0.178,0.552-0.468,0.421-0.857c-0.21-0.636-0.545-1.503-0.683-1.898c-0.354-0.943-1.353-1.101-2.569-0.967
	c-2.815,0.328-5.352,1.291-7.863,2.634c-6.568,3.517-9.861,10.327-11.307,13.97c-0.693,1.752-1.289,2.841-2.059,3.811
	c-1.037,1.301-2.333,2.487-4.713,4.575c-0.214,0.193-0.37,0.589-0.191,0.962c0.242,0.503,1.478,2.247,1.825,2.404
	c0.386,0.193,0.836-0.074,1.018-0.205c1.663-1.125,3.654-2.912,4.627-4.128c0.341-0.415,0.692-0.238,0.875,0.389
	c0.906,3.249,3.287,5.894,6.577,7.001c6.028,2.028,12.277-0.91,16.99-6.027c2.997-3.256,4.079-5.349,5.228-6.77
	c1.947-2.413,5.789-7.812,10.362-11.275c1.679-1.278,3.667-2.252,4.662-1.604c0.801,0.519,1.06,1.722-0.227,4.061
	c-4.662,8.52-11.526,18.529-12.788,20.95c-0.227,0.422-0.025,0.756,0.415,0.756c2.438-0.013,4.861-0.007,7.075-0.007
	c0.371-0.016,0.533-0.187,0.719-0.449c3.581-5.604,6.95-10.933,10.56-16.448c0.201-0.321,0.387-0.072,0.396,0.068
	c0.072,1.284,0.389,3.031,1.148,4.179c1.362,2.124,3.296,3.037,5.444,3.053c1.707,0.02,2.566-0.24,4.41-0.929
	c1.496-0.556,2.699-1.283,3.622-1.947c0.536-0.373,0.632,0.256,0.619,0.354c-0.826,4.447,0.191,9.719,4.614,11.901
	c5.295,2.61,11.106-1.056,14.447-4.365c0.329-0.321,0.677-0.289,0.712,0.398c0.069,1.271,0.642,2.768,1.688,3.813
	c2.798,2.813,8.457,1.698,14.127-2.693c3.647-2.813,7.459-6.787,10.908-10.993c0.121-0.164,0.221-0.429-0.025-0.689
	c-0.523-0.549-1.283-1.177-1.804-1.663c-0.238-0.199-0.583-0.141-0.788,0.01c-3.529,3.355-6.704,7.187-11.3,10.349
	c-1.548,1.086-4.015,1.958-5.126,0.458c-0.431-0.582-0.382-1.393,0.042-2.448C213.565,79.352,234.768,47.072,235.866,45.17
	 M207.843,72.238c0.045,0.248,0.367,0.486,0.684,0.601c0.108,0.044,0.172,0.118,0.044,0.38c-0.899,1.934-1.727,3.045-2.859,4.726
	c-1.037,1.549-2.211,2.762-3.625,3.925c-2.138,1.768-5.109,3.692-7.563,2.397c-1.091-0.561-1.561-2.088-1.538-3.326
	c0.055-3.474,1.593-7.038,4.445-10.542c3.481-4.285,7.328-6.506,9.852-5.295c2.61,1.246,1.777,4.269,0.609,6.647
	C207.805,71.931,207.796,72.09,207.843,72.238"/>
<path fill="#FFFFFF" d="M82.087,90.613c-7.905,0.056-14.865-4.833-15.666-13.287c-0.443-4.684,0.881-8.865,3.533-12.304
	c2.352-3.068,6.338-5.614,9.702-6.238c1.101-0.199,2.575-0.069,3.185,0.656c0.954,1.112,0.676,2.338-0.274,2.821
	c-2.572,1.313-5.668,3.562-7.196,6.63c-1.242,2.5-1.494,5.525,0.398,8.399c3.179,4.79,12.025,4.925,20.252-2.719
	c2.039-1.873,3.861-3.67,5.719-5.796c3.622-4.148,4.825-5.659,9.641-12.339c0.061-0.075,0.077-0.175,0.051-0.225
	c-0.039-0.087-0.109-0.112-0.25-0.118c-3.213,0.089-6.019,1.05-8.741,3.083c-0.785,0.571-1.915,0.49-2.409-0.262
	c-0.549-0.851-0.156-1.961,0.75-2.585c4.381-3.046,9.171-3.601,14.061-4.428c-0.003,0,0.342,0.013,0.619-0.357
	c2.007-2.574,3.523-4.898,5.665-7.506c2.157-2.641,4.94-5.064,7.069-6.892c2.971-2.556,4.876-3.415,6.81-4.468
	c0.511-0.268-0.061-0.587-0.22-0.587c-10.809-2.029-22.042-4.661-32.775-0.686c-7.436,2.776-10.697,8.672-9.124,12.61
	c1.11,2.794,4.787,3.247,8.227,1.565c2.856-1.399,5.499-3.654,7.378-6.56c1.047-1.613,3.255-0.45,2.062,2.354
	c-3.14,7.382-9.14,13.238-16.448,13.48c-6.223,0.206-10.238-4.369-10.222-10.016c0.022-11.138,12.424-18.473,25.451-19.572
	c15.691-1.294,30.553,2.886,46.129,4.775c11.939,1.444,23.383,1.473,35.379-1.281c1.417-0.308,2.416,0.595,2.32,2.028
	c-0.118,2.072-1.721,4.065-5.671,6.22c-4.496,2.467-9.193,3.212-14.103,3.255c-11.875,0.097-22.938-4.53-34.383-7.016
	c0.016,0.499,0.147,1.098-0.274,1.414c-6.338,4.674-12.069,9.425-15.909,16.092c-0.127,0.156-0.057,0.3,0.166,0.284
	c3.332-0.174,6.332-0.258,9.44-0.507c0.542-0.045,0.562-0.179,0.517-0.578c-0.274-2.298,0.396-4.921,2.418-6.726
	c2.068-1.853,4.66-2.064,6.376-0.732c1.953,1.524,1.781,4.262,0.715,6.317c-1.089,2.083-2.885,3.193-4.608,3.732
	c0,0-0.361,0.082-0.307,0.412c0.067,0.523,2.416,1.827,2.617,2.173c0.194,0.327,0.096,0.839-0.265,1.231
	c-0.249,0.284-0.638,0.552-1.133,0.546c-0.409-0.009-0.651-0.15-1.165-0.431c-1.059-0.568-2.371-1.506-3.252-2.615
	c-0.297-0.372-0.45-0.382-1.2-0.34c-3.364,0.196-8.613,0.7-12.172,1.147c-0.858,0.108-0.986,0.268-1.165,0.563
	c-5.671,9.353-11.725,19.436-18.373,26.188C94.307,88.661,88.377,90.56,82.087,90.613 M136.122,49.065
	c0.093,0.477,0.277,0.571,0.495,0.53c1.079-0.216,2.259-1.106,2.961-2.132c0.638-0.934,0.935-2.284,0.303-2.826
	c-0.565-0.483-1.484-0.343-2.167,0.258C136.361,46.094,135.95,47.793,136.122,49.065"/>
</svg>
